<?xml version="1.0" standalone="no"?>
<!DOCTYPE svg PUBLIC "-//W3C//DTD SVG 1.1//EN" "http://www.w3.org/Graphics/SVG/1.1/DTD/svg11.dtd" >
<svg xmlns="http://www.w3.org/2000/svg" xmlns:xlink="http://www.w3.org/1999/xlink" version="1.1">
<metadata></metadata>
<defs>
<font id="compacta_blk_btblack" horiz-adv-x="1616" >
<font-face units-per-em="2048" ascent="1638" descent="-410" />
<missing-glyph horiz-adv-x="827" />
<glyph horiz-adv-x="0" />
<glyph unicode="&#xd;" horiz-adv-x="827" />
<glyph unicode=" "  horiz-adv-x="827" />
<glyph unicode="&#x09;" horiz-adv-x="827" />
<glyph unicode="&#xa0;" horiz-adv-x="827" />
<glyph unicode="!" horiz-adv-x="868" d="M106 0v371h654v-371h-654zM106 1663h654l-113 -1194h-432z" />
<glyph unicode="&#x22;" horiz-adv-x="758" d="M68 877v563h258v-563h-258zM430 877v563h260v-563h-260z" />
<glyph unicode="#" horiz-adv-x="1575" d="M-6 350l100 271h254l74 213h-258l98 270h258l129 366h289l-129 -366h227l129 366h289l-129 -366h256l-100 -270h-252l-76 -213h258l-100 -271h-254l-131 -366h-289l131 366h-227l-131 -366h-289l131 366h-258zM629 621h239l78 213h-239z" />
<glyph unicode="$" horiz-adv-x="1565" d="M43 315v301h664v-116q0 -63 18.5 -91t60.5 -28q44 0 63 31t19 104q0 61 -18.5 90.5t-91.5 59.5l-451 182q-154 63 -209 136t-55 200v164q0 153 104 234t302 81h190v137h285v-137h194q198 0 302 -81t104 -234v-197h-660v20q0 55 -21.5 84t-62.5 29q-34 0 -56 -20.5 t-22 -53.5q0 -31 21 -52.5t96 -53.5l524 -221q100 -43 140.5 -120.5t40.5 -234.5v-170q0 -183 -99 -270.5t-307 -87.5h-194v-135h-285v135h-190q-199 0 -302.5 80.5t-103.5 234.5z" />
<glyph unicode="%" horiz-adv-x="2361" d="M66 932v522q0 108 54.5 158.5t172.5 50.5h385q126 0 181.5 -49t55.5 -160v-522q0 -128 -52 -180t-185 -52h-385q-126 0 -176.5 52.5t-50.5 179.5zM444 989q0 -36 11.5 -52.5t36.5 -16.5q23 0 34 16t11 53v385q0 37 -11 53.5t-34 16.5q-25 0 -36.5 -17t-11.5 -53v-385z M721 0l606 1663h328l-604 -1663h-330zM1446 233v523q0 108 54 158.5t171 50.5h387q126 0 181 -49t55 -160v-523q0 -129 -52 -181t-184 -52h-387q-124 0 -174.5 52.5t-50.5 180.5zM1823 291q0 -36 11.5 -53t35.5 -17q23 0 34 16.5t11 53.5v383q0 37 -11 53t-34 16 q-24 0 -35.5 -16.5t-11.5 -52.5v-383z" />
<glyph unicode="&#x26;" horiz-adv-x="1683" d="M61 428q0 213 63.5 320t207.5 141q-145 36 -207 123t-62 256q0 211 97.5 303t322.5 92h795v-379h-463q-52 0 -73 -23.5t-21 -82.5q0 -58 21 -81.5t73 -23.5h72v139h649v-139h135v-368h-135v-705h-1053q-232 0 -327 96t-95 332zM721 508q0 -68 20 -97.5t66 -29.5 q37 0 58.5 21t21.5 59v244h-72q-52 0 -73 -29t-21 -98v-70z" />
<glyph unicode="'" horiz-adv-x="393" d="M68 877v563h258v-563h-258z" />
<glyph unicode="(" horiz-adv-x="963" d="M86 -80v1481q0 153 104 234t302 81h403v-332h-102q-88 0 -112 -22.5t-24 -97.5v-1207q0 -74 23.5 -97t112.5 -23h102v-332h-403q-198 0 -302 81t-104 234z" />
<glyph unicode=")" horiz-adv-x="963" d="M68 -63h100q90 0 113.5 22.5t23.5 95.5v1209q0 73 -23 95.5t-114 22.5h-100v334h403q198 0 302 -81t104 -234v-1481q0 -154 -104.5 -235.5t-301.5 -81.5h-403v334z" />
<glyph unicode="*" horiz-adv-x="1075" d="M45 1194l92 289l250 -82v262h303v-262l248 82l94 -289l-250 -80l154 -213l-244 -178l-153 213l-154 -213l-246 178l154 213z" />
<glyph unicode="+" horiz-adv-x="1706" d="M254 475v273h459v473h280v-473h459v-273h-459v-475h-280v475h-459z" />
<glyph unicode="," horiz-adv-x="664" d="M90 0v391h483v-436q0 -203 -63.5 -283t-220.5 -80h-199v236h133q56 0 79.5 27.5t23.5 95.5v49h-236z" />
<glyph unicode="-" horiz-adv-x="819" d="M57 449v436h707v-436h-707z" />
<glyph unicode="." horiz-adv-x="664" d="M90 0v389h483v-389h-483z" />
<glyph unicode="/" horiz-adv-x="1151" d="M0 -190l807 1853h344l-795 -1853h-356z" />
<glyph unicode="0" d="M66 387v932q0 185 95 271.5t300 86.5h678q220 0 315.5 -83.5t95.5 -274.5v-932q0 -223 -90.5 -312t-320.5 -89h-678q-217 0 -306 91t-89 310zM725 485q0 -63 19.5 -90.5t62.5 -27.5q45 0 64.5 27t19.5 91v693q0 62 -20.5 91t-63.5 29t-62.5 -28.5t-19.5 -91.5v-693z" />
<glyph unicode="1" horiz-adv-x="991" d="M-10 1063v379q151 16 250 71t151 150h504v-1663h-657v1063h-248z" />
<glyph unicode="2" horiz-adv-x="1602" d="M45 0v360l764 695q27 26 42 59t15 68q0 60 -18.5 88t-59.5 28q-38 0 -60.5 -28t-22.5 -74v-100h-660v266q0 153 104 234t302 81h669q198 0 302 -81t104 -234v-270q0 -111 -25 -179.5t-82 -119.5l-454 -412h561v-381h-1481z" />
<glyph unicode="3" horiz-adv-x="1602" d="M39 301v289h666v-105q0 -62 18.5 -90t60.5 -28q43 0 61.5 27t18.5 91v99q0 61 -26.5 89.5t-83.5 28.5h-144v377h133q61 0 91 28.5t30 86.5q0 46 -23 75t-59 29q-38 0 -61 -28t-23 -74v-31h-659v197q0 153 104 234t301 81h670q198 0 303 -81t105 -234v-139 q0 -130 -63 -210t-204 -128q148 -35 207.5 -119t59.5 -262v-160q0 -183 -99.5 -270.5t-308.5 -87.5h-670q-198 0 -301.5 80.5t-103.5 234.5z" />
<glyph unicode="4" horiz-adv-x="1636" d="M16 330v340l449 993h983v-952h217v-381h-217v-330h-660v330h-772zM590 711h198v454z" />
<glyph unicode="5" horiz-adv-x="1655" d="M88 301v250h666v-66q0 -62 18.5 -90t61.5 -28t62 27.5t19 90.5v160q0 63 -19 91t-62 28q-31 0 -50 -19.5t-31 -62.5h-665v981h1483v-379h-819v-201q93 46 187.5 68.5t197.5 22.5q213 0 323.5 -97.5t110.5 -285.5v-447q0 -184 -99 -271t-307 -87h-671q-199 0 -302.5 80.5 t-103.5 234.5z" />
<glyph unicode="6" horiz-adv-x="1655" d="M88 301v1061q0 153 104 234t302 81h671q198 0 302 -81t104 -234v-197h-660v31q0 46 -23 74t-61 28q-41 0 -58 -30.5t-17 -106.5v-188q93 46 187.5 68t197.5 22q214 0 324 -96.5t110 -284.5v-338q0 -184 -99 -271t-307 -87h-671q-199 0 -302.5 80.5t-103.5 234.5zM754 473 q0 -53 19.5 -79.5t60.5 -26.5t61 26t20 80v86q0 57 -19 83t-62 26q-42 0 -61 -27t-19 -86v-82z" />
<glyph unicode="7" horiz-adv-x="1262" d="M33 0l540 1284h-540v379h1181v-432l-522 -1231h-659z" />
<glyph unicode="8" horiz-adv-x="1636" d="M88 344v160q0 179 59 262.5t205 118.5q-140 48 -202 127t-62 211v139q0 153 104 234t302 81h651q198 0 302.5 -81t104.5 -234v-139q0 -130 -62.5 -210t-203.5 -128q147 -35 206.5 -119t59.5 -262v-160q0 -183 -99 -270.5t-308 -87.5h-651q-208 0 -307 87t-99 271z M737 1186q0 -56 20.5 -83.5t61.5 -27.5q43 0 62.5 28.5t19.5 90.5q0 51 -21 77.5t-61 26.5t-61 -28.5t-21 -83.5zM739 489q0 -64 19 -93t61 -29q43 0 62.5 28.5t19.5 93.5v101q0 65 -19.5 95t-62.5 30q-42 0 -61 -29t-19 -96v-101z" />
<glyph unicode="9" horiz-adv-x="1655" d="M88 301v215h660v-49q0 -46 22.5 -73t60.5 -27q42 0 59 30t17 105v198q-90 -45 -183 -67.5t-189 -22.5q-223 0 -335 96t-112 287v328q0 183 98.5 269.5t307.5 86.5h669q198 0 302 -81t104 -234v-1061q0 -153 -104 -234t-302 -81h-669q-199 0 -302.5 80.5t-103.5 234.5z M743 1118q0 -56 20 -82t62 -26t61 26.5t19 85.5v68q0 54 -20 81t-60 27q-41 0 -61.5 -27t-20.5 -81v-72z" />
<glyph unicode=":" horiz-adv-x="682" d="M100 0v389h484v-389h-484zM100 698v389h484v-389h-484z" />
<glyph unicode=";" horiz-adv-x="682" d="M100 0v391h484v-436q0 -203 -64 -283t-221 -80h-199v236h133q56 0 79.5 27.5t23.5 95.5v49h-236zM100 698v389h484v-389h-484z" />
<glyph unicode="&#x3c;" horiz-adv-x="1706" d="M264 471v281l1178 487v-301l-801 -328l801 -327v-299z" />
<glyph unicode="=" horiz-adv-x="1706" d="M254 240v272h1198v-272h-1198zM254 711v272h1198v-272h-1198z" />
<glyph unicode="&#x3e;" horiz-adv-x="1706" d="M264 -16v299l801 327l-801 328v301l1178 -487v-281z" />
<glyph unicode="?" horiz-adv-x="1554" d="M59 1151v197q0 153 104 234t302 81h625q197 0 301 -81t104 -234v-246q0 -66 -9 -109t-30 -78q-29 -47 -136 -125q-24 -18 -38 -28q-100 -75 -127 -121.5t-27 -112.5v-59h-653v156q0 88 32 149.5t114 126.5q25 20 73 56q87 64 115 96q20 22 28.5 46.5t8.5 71.5 q0 60 -20.5 86.5t-65.5 26.5q-44 0 -65 -25.5t-21 -76.5v-31h-615zM475 0v371h653v-371h-653z" />
<glyph unicode="@" horiz-adv-x="2048" d="M70 520q0 176 55.5 332.5t163.5 284.5q149 177 361.5 271.5t461.5 94.5q386 0 626 -206t240 -533q0 -171 -68 -314.5t-196 -242.5q-70 -55 -153.5 -84t-174.5 -29q-109 0 -166.5 38t-66.5 115q-59 -79 -127.5 -115t-161.5 -36q-171 0 -257.5 88t-86.5 262 q0 247 143.5 411.5t356.5 164.5q74 0 130.5 -28t90.5 -83l49 82h242l-156 -627q-2 -12 -3 -18.5t-1 -11.5q0 -24 12.5 -36.5t34.5 -12.5q128 0 231 142t103 331q0 236 -174.5 381t-462.5 145q-142 0 -266 -35.5t-225 -105.5q-154 -108 -238 -269t-84 -350 q0 -294 199.5 -468.5t535.5 -174.5q160 0 307.5 47t278.5 140l115 -160q-164 -122 -342 -181t-381 -59q-188 0 -355 54.5t-294 156.5q-149 119 -223 279t-74 360zM801 440q0 -72 30.5 -111.5t86.5 -39.5q72 0 129 55.5t79 149.5l47 195q-7 67 -42 104.5t-91 37.5 q-95 0 -167 -116.5t-72 -274.5z" />
<glyph unicode="A" horiz-adv-x="1602" d="M0 0l293 1663h1016l293 -1663h-672l-37 360h-186l-37 -360h-670zM731 727h137l-67 565z" />
<glyph unicode="B" horiz-adv-x="1612" d="M76 0v1663h1052q227 0 324.5 -92.5t97.5 -302.5q0 -167 -62.5 -255t-207.5 -124q144 -34 207 -141t63 -320q0 -236 -94.5 -332t-327.5 -96h-1052zM725 381h72q53 0 73.5 25.5t20.5 93.5v67q0 66 -21 92.5t-73 26.5h-72v-305zM725 1049h72q51 0 72.5 26t21.5 90 q0 67 -21 93t-73 26h-72v-235z" />
<glyph unicode="C" d="M66 346v930q0 218 88.5 307.5t306.5 89.5h678q232 0 321.5 -88t89.5 -309v-219h-659v121q0 65 -19.5 92.5t-64.5 27.5q-43 0 -62.5 -28.5t-19.5 -91.5v-693q0 -63 19.5 -91.5t62.5 -28.5t63.5 29t20.5 91v193h659v-332q0 -191 -95.5 -274.5t-315.5 -83.5h-678 q-205 0 -300 86.5t-95 271.5z" />
<glyph unicode="D" d="M76 0v1663h1063q220 0 315.5 -84t95.5 -274v-904q0 -223 -90 -312t-321 -89h-1063zM725 381h72q53 0 73.5 25.5t20.5 93.5v665q0 67 -21 93t-73 26h-72v-903z" />
<glyph unicode="E" horiz-adv-x="1194" d="M76 0v1663h1048v-379h-399v-182h399v-379h-399v-344h399v-379h-1048z" />
<glyph unicode="F" horiz-adv-x="1186" d="M76 0v1663h1048v-379h-399v-182h399v-379h-399v-723h-649z" />
<glyph unicode="G" horiz-adv-x="1620" d="M66 387v932q0 184 94.5 269t300.5 85h678q222 0 316.5 -82.5t94.5 -271.5v-168h-661l2 27q0 4 1 11t1 11q0 45 -23.5 71.5t-62.5 26.5q-43 0 -62.5 -28.5t-19.5 -91.5v-693q0 -63 19.5 -90.5t62.5 -27.5q45 0 64.5 27t19.5 91v103h-90v370h749v-958h-333l-58 121 q-30 -71 -110 -102t-236 -31h-352q-218 0 -306.5 90.5t-88.5 308.5z" />
<glyph unicode="H" d="M76 0v1663h649v-563h166v563h649v-1663h-649v721h-166v-721h-649z" />
<glyph unicode="I" horiz-adv-x="801" d="M76 0v1663h649v-1663h-649z" />
<glyph unicode="J" horiz-adv-x="1587" d="M51 387v313h631v-215q0 -63 19.5 -90.5t62.5 -27.5q45 0 64.5 27t19.5 91v1178h649v-1276q0 -222 -90 -310.5t-322 -88.5h-639q-217 0 -306 90.5t-89 308.5z" />
<glyph unicode="K" horiz-adv-x="1587" d="M80 0v1663h637v-672l209 672h661l-250 -772l265 -891h-654l-231 760v-760h-637z" />
<glyph unicode="L" horiz-adv-x="1165" d="M80 0v1663h649v-1284h399v-379h-1048z" />
<glyph unicode="M" horiz-adv-x="2154" d="M76 0v1663h821l180 -690l178 690h824v-1663h-580v915l-239 -915h-365l-242 915v-915h-577z" />
<glyph unicode="N" horiz-adv-x="1640" d="M76 0v1663h641l256 -686v686h592v-1663h-613l-284 782v-782h-592z" />
<glyph unicode="O" d="M66 387v932q0 184 94.5 269t300.5 85h678q222 0 316.5 -82.5t94.5 -271.5v-932q0 -222 -90 -310.5t-321 -88.5h-678q-218 0 -306.5 90.5t-88.5 308.5zM725 485q0 -63 19.5 -90.5t62.5 -27.5q45 0 64.5 27t19.5 91v693q0 62 -20.5 91t-63.5 29t-62.5 -28.5t-19.5 -91.5 v-693z" />
<glyph unicode="P" d="M76 0v1663h1063q220 0 315.5 -84t95.5 -274v-459q0 -223 -90.5 -312.5t-320.5 -89.5h-414v-444h-649zM725 821h86q48 0 69 27t21 92v227q0 65 -20.5 93t-67.5 28h-88v-467z" />
<glyph unicode="Q" d="M66 401v918q0 184 94.5 269t300.5 85h678q222 0 316.5 -82.5t94.5 -271.5v-918q0 -222 -90.5 -311.5t-320.5 -89.5h-39q34 -37 106.5 -53.5t216.5 -18.5l-217 -297q-206 14 -363.5 105t-273.5 264h-108q-217 0 -306 91t-89 310zM725 500q0 -64 19.5 -91.5t62.5 -27.5 q45 0 64.5 27t19.5 92v678q0 62 -20.5 91t-63.5 29t-62.5 -28.5t-19.5 -91.5v-678z" />
<glyph unicode="R" horiz-adv-x="1622" d="M76 0v1663h1052q226 0 323 -92t97 -303q0 -168 -62 -255.5t-206 -123.5q144 -34 207 -141t63 -320v-428h-659v567q0 66 -21 92.5t-73 26.5h-72v-686h-649zM725 1049h72q51 0 72.5 26t21.5 90q0 67 -21 93t-73 26h-72v-235z" />
<glyph unicode="S" horiz-adv-x="1608" d="M63 301v301h664v-117q0 -62 19 -90t61 -28q43 0 62.5 30t19.5 99q0 78 -18.5 109t-92.5 61l-450 182q-155 63 -210 136t-55 200v178q0 153 103.5 232t302.5 79h670q199 0 302 -79t103 -232v-197h-659v21q0 55 -21.5 83.5t-62.5 28.5q-35 0 -56.5 -22t-21.5 -59 q0 -36 19.5 -58.5t97.5 -54.5l524 -221q100 -43 140 -120.5t40 -234.5v-184q0 -183 -98.5 -269.5t-306.5 -86.5h-670q-199 0 -302.5 79.5t-103.5 233.5z" />
<glyph unicode="T" horiz-adv-x="1352" d="M18 1284v379h1313v-379h-334v-1284h-645v1284h-334z" />
<glyph unicode="U" d="M76 387v1276h649v-1178q0 -63 19.5 -90.5t62.5 -27.5q45 0 64.5 27t19.5 91v1178h649v-1276q0 -222 -90 -310.5t-322 -88.5h-659q-217 0 -305 90t-88 309z" />
<glyph unicode="V" horiz-adv-x="1587" d="M0 1663h678l117 -1057l116 1057h678l-356 -1663h-877z" />
<glyph unicode="W" horiz-adv-x="2292" d="M0 1663h655l121 -762l129 762h481l130 -762l120 762h656l-340 -1663h-666l-141 705l-139 -705h-666z" />
<glyph unicode="X" horiz-adv-x="1540" d="M-10 0l256 870l-244 793h655l113 -500l113 500h653l-242 -793l254 -870h-649l-129 614l-129 -614h-651z" />
<glyph unicode="Y" horiz-adv-x="1575" d="M-18 1663h632l172 -399l175 399h632l-481 -1034v-629h-649v629z" />
<glyph unicode="Z" horiz-adv-x="1294" d="M61 0v356l445 928h-406v379h1131v-348l-447 -936h447v-379h-1170z" />
<glyph unicode="[" horiz-adv-x="977" d="M94 -397v2113h805v-334h-235v-1445h235v-334h-805z" />
<glyph unicode="\" horiz-adv-x="1151" d="M0 1663h344l807 -1853h-358z" />
<glyph unicode="]" horiz-adv-x="977" d="M78 -63h235v1445h-235v332h805v-2111h-805v334z" />
<glyph unicode="^" horiz-adv-x="2048" d="M412 897l442 565h338l442 -565h-303l-307 309l-309 -309h-303z" />
<glyph unicode="_" horiz-adv-x="1024" d="M0 -201h1024v-282h-1024v282z" />
<glyph unicode="`" horiz-adv-x="1024" d="M186 1663h346l140 -279h-320z" />
<glyph unicode="a" horiz-adv-x="1229" d="M57 373v53q0 120 45 185t160 114l416 180v56q0 58 -17 81t-57 23q-37 0 -54.5 -25t-17.5 -79v-43h-469v94q0 167 71.5 233t250.5 66h451q178 0 249.5 -66.5t71.5 -232.5v-1012h-467v82q-74 -47 -147 -69.5t-152 -22.5q-163 0 -248.5 98t-85.5 285zM530 379 q0 -53 18.5 -79t55.5 -26q40 0 58 25t18 80v203l-66 -31q-46 -23 -65 -54t-19 -89v-29z" />
<glyph unicode="b" horiz-adv-x="1237" d="M74 0v1663h483v-430q70 42 139 62t148 20q164 0 250 -97.5t86 -283.5v-561q0 -187 -86.5 -285t-249.5 -98q-82 0 -156 23t-145 71v-84h-469zM557 395q0 -53 16 -76.5t52 -23.5q34 0 50.5 24.5t16.5 75.5v516q0 52 -16.5 76.5t-50.5 24.5q-35 0 -51.5 -24.5t-16.5 -76.5 v-516z" />
<glyph unicode="c" horiz-adv-x="1231" d="M57 295v717q0 168 71 233.5t249 65.5h475q179 0 250.5 -66.5t71.5 -232.5v-201h-492v145q0 52 -16.5 76.5t-51.5 24.5t-51 -24t-16 -77v-608q0 -51 16.5 -75.5t50.5 -24.5q36 0 52 23.5t16 76.5v211h492v-264q0 -167 -71.5 -233t-250.5 -66h-475q-178 0 -249 65t-71 234z " />
<glyph unicode="d" horiz-adv-x="1237" d="M57 373v561q0 186 86 283.5t250 97.5q79 0 148 -20t139 -62v430h483v-1663h-467v84q-73 -48 -147 -71t-156 -23q-163 0 -249.5 98t-86.5 285zM545 395q0 -51 16.5 -75.5t50.5 -24.5q36 0 52 23.5t16 76.5v516q0 52 -16.5 76.5t-51.5 24.5q-34 0 -50.5 -24.5t-16.5 -76.5 v-516z" />
<glyph unicode="e" horiz-adv-x="1231" d="M57 295v717q0 168 71 233.5t249 65.5h475q179 0 250.5 -66.5t71.5 -232.5v-396h-627v-268q0 -51 16.5 -75.5t50.5 -24.5q36 0 52 23.5t16 76.5v168h492v-221q0 -167 -71.5 -233t-250.5 -66h-475q-178 0 -249 65t-71 234zM543 852h145v104q0 58 -17.5 84.5t-56.5 26.5 q-37 0 -54 -26t-17 -85v-104z" />
<glyph unicode="f" horiz-adv-x="793" d="M0 1057v250h125v57q0 168 71 233.5t250 65.5h336v-248h-57q-66 0 -91.5 -16t-25.5 -56v-36h174v-250h-174v-1057h-483v1057h-125z" />
<glyph unicode="g" horiz-adv-x="1237" d="M57 373v561q0 186 86 283.5t250 97.5q82 0 156 -23t147 -71v86h467v-1346q0 -168 -71 -234.5t-248 -66.5h-733v250h454q65 0 90 15.5t25 56.5v92q-72 -44 -141 -64t-146 -20q-163 0 -249.5 98t-86.5 285zM545 395q0 -52 16.5 -76t52.5 -24q35 0 50.5 24t15.5 76v516 q0 53 -16 77t-52 24q-34 0 -50.5 -24.5t-16.5 -76.5v-516z" />
<glyph unicode="h" horiz-adv-x="1245" d="M74 0v1663h483v-430q63 41 133 61.5t150 20.5q164 0 250 -97.5t86 -283.5v-934h-484v911q0 52 -16.5 76.5t-50.5 24.5q-36 0 -52 -24t-16 -77v-911h-483z" />
<glyph unicode="i" horiz-adv-x="635" d="M76 0v1307h483v-1307h-483zM76 1399v264h483v-264h-483z" />
<glyph unicode="j" horiz-adv-x="639" d="M-63 -90h28q65 0 90 15.5t25 56.5v1325h483v-1346q0 -168 -71 -234.5t-248 -66.5h-307v250zM80 1399v264h483v-264h-483z" />
<glyph unicode="k" horiz-adv-x="1208" d="M80 0v1663h475v-875l119 519h493l-204 -619l229 -688h-492l-145 610v-610h-475z" />
<glyph unicode="l" horiz-adv-x="635" d="M76 0v1663h483v-1663h-483z" />
<glyph unicode="m" horiz-adv-x="1843" d="M74 0v1307h463v-82q72 46 145 68t154 22q85 0 152 -32.5t114 -96.5q71 65 155.5 97t186.5 32q160 0 246 -98.5t86 -282.5v-934h-480v911q0 52 -16.5 76.5t-50.5 24.5q-36 0 -52 -24t-16 -77v-911h-473v911q0 52 -16.5 76.5t-50.5 24.5q-36 0 -52 -24t-16 -77v-911h-479z " />
<glyph unicode="n" horiz-adv-x="1245" d="M74 0v1307h469v-82q73 46 144.5 68t152.5 22q164 0 250 -97.5t86 -283.5v-934h-484v911q0 52 -16.5 76.5t-50.5 24.5q-36 0 -52 -24t-16 -77v-911h-483z" />
<glyph unicode="o" horiz-adv-x="1231" d="M57 295v717q0 168 71 233.5t249 65.5h475q179 0 250.5 -66.5t71.5 -232.5v-717q0 -167 -71.5 -233t-250.5 -66h-475q-178 0 -249 65t-71 234zM547 348q0 -51 16.5 -75.5t50.5 -24.5q36 0 52 23.5t16 76.5v608q0 52 -16.5 76.5t-51.5 24.5t-51 -24t-16 -77v-608z" />
<glyph unicode="p" horiz-adv-x="1237" d="M74 -340v1647h469v-86q73 48 146 71t155 23q164 0 250 -97.5t86 -283.5v-561q0 -187 -86.5 -285t-249.5 -98q-77 0 -146 20t-141 64v-414h-483zM557 395q0 -52 15.5 -76t50.5 -24q36 0 52.5 24t16.5 76v516q0 52 -16.5 76.5t-50.5 24.5q-36 0 -52 -24t-16 -77v-516z" />
<glyph unicode="q" horiz-adv-x="1237" d="M57 373v561q0 186 86 283.5t250 97.5q82 0 156 -23t147 -71v86h467v-1647h-483v414q-72 -44 -141 -64t-146 -20q-163 0 -249.5 98t-86.5 285zM545 395q0 -52 16.5 -76t52.5 -24q35 0 50.5 24t15.5 76v516q0 53 -16 77t-52 24q-34 0 -50.5 -24.5t-16.5 -76.5v-516z" />
<glyph unicode="r" horiz-adv-x="1180" d="M74 0v1307h469v-82q70 46 138.5 68t145.5 22q158 0 241 -97.5t83 -283.5v-146h-459v123q0 52 -16.5 76.5t-50.5 24.5q-36 0 -52 -24t-16 -77v-911h-483z" />
<glyph unicode="s" horiz-adv-x="1231" d="M57 295v162h490v-109q0 -51 16.5 -75.5t50.5 -24.5q36 0 52 23.5t16 76.5v35q0 46 -27.5 77.5t-85.5 51.5l-280 96q-131 46 -177 105t-46 176v123q0 167 71 233t250 66h465q179 0 250.5 -66.5t71.5 -232.5v-88h-486v32q0 52 -16.5 76.5t-50.5 24.5q-30 0 -49 -21t-19 -53 q0 -43 23 -67.5t110 -55.5l211 -74q163 -56 220 -127t57 -206v-158q0 -167 -71.5 -233t-250.5 -66h-475q-178 0 -249 65t-71 234z" />
<glyph unicode="t" horiz-adv-x="844" d="M18 1057v250h127v356h484v-356h200v-250h-200v-738q0 -39 24 -54t90 -15h86v-250h-364q-178 0 -249 66t-71 235v756h-127z" />
<glyph unicode="u" horiz-adv-x="1245" d="M68 373v934h483v-912q0 -51 16.5 -75.5t50.5 -24.5q36 0 52 23.5t16 76.5v912h485v-1307h-469v82q-74 -47 -146.5 -69.5t-152.5 -22.5q-163 0 -249 98t-86 285z" />
<glyph unicode="v" horiz-adv-x="1176" d="M0 1307h485l93 -875l94 875h487l-239 -1307h-682z" />
<glyph unicode="w" horiz-adv-x="1688" d="M0 1307h463l102 -572l97 572h350l98 -572l100 572h465l-286 -1307h-441l-110 616l-111 -616h-440z" />
<glyph unicode="x" horiz-adv-x="1219" d="M0 0l201 688l-160 619h485l80 -490l82 490h486l-160 -619l200 -688h-505l-101 551l-102 -551h-506z" />
<glyph unicode="y" horiz-adv-x="1208" d="M-8 1307h497l105 -863l106 863h498l-297 -1211q-38 -161 -71.5 -227.5t-86.5 -112.5q-60 -52 -134 -74t-224 -22h-365v250h158q68 0 97.5 25t29.5 81q0 24 -2 42.5t-6 31.5z" />
<glyph unicode="z" horiz-adv-x="1010" d="M49 0v240l352 798h-317v269h846v-236l-350 -803h374v-268h-905z" />
<glyph unicode="{" horiz-adv-x="1024" d="M145 389v283q7 0 18.5 -1t16.5 -1q112 0 158.5 52t46.5 179v258q0 133 24.5 188t84.5 85q48 24 120.5 34.5t210.5 10.5h80v-285q-8 0 -22.5 1t-20.5 1q-87 0 -117 -30t-30 -128v-239q0 -134 -47 -189.5t-170 -77.5q124 -23 170.5 -77.5t46.5 -186.5v-241q0 -96 29.5 -126 t115.5 -30q7 0 22 1t23 1v-285h-80q-139 0 -211.5 10.5t-119.5 34.5q-60 30 -84.5 84.5t-24.5 186.5v258q0 127 -46.5 179t-158.5 52q-5 0 -16.5 -1t-18.5 -1z" />
<glyph unicode="|" horiz-adv-x="1024" d="M373 -483v2048h280v-2048h-280z" />
<glyph unicode="}" horiz-adv-x="1024" d="M121 -131q9 0 23 -1t20 -1q87 0 117 30t30 128v241q0 132 46.5 186.5t170.5 77.5q-123 22 -170 77t-47 188v241q0 98 -30 128t-117 30q-6 0 -20 -1t-23 -1v285h80q138 0 210 -10.5t119 -34.5q61 -31 86 -87t25 -186v-258q0 -127 46.5 -179t158.5 -52q5 0 16.5 1t18.5 1 v-283q-7 0 -18.5 1t-16.5 1q-112 0 -158.5 -52t-46.5 -179v-258q0 -130 -25 -186t-86 -87q-45 -23 -115 -33t-200 -10h-94v283z" />
<glyph unicode="~" horiz-adv-x="1706" d="M178 379v299q119 75 216.5 109t191.5 34q58 0 123 -12t155 -41q22 -7 64 -22q152 -54 235 -54q86 0 175 36.5t192 113.5v-299q-102 -69 -192 -101t-179 -32q-54 0 -111.5 11.5t-154.5 45.5q-124 42 -194.5 56t-137.5 14q-84 0 -176 -38t-207 -120z" />
<glyph unicode="&#xa1;" horiz-adv-x="868" d="M106 0l113 1196h432l109 -1196h-654zM106 1294v369h654v-369h-654z" />
<glyph unicode="&#xa2;" horiz-adv-x="1298" d="M51 473v717q0 168 70.5 233.5t249.5 65.5h145v137h252v-137h145q178 0 249 -66t71 -233v-199h-522v144q0 50 -17.5 75t-52.5 25t-50.5 -23t-15.5 -77v-609q0 -52 16 -76t50 -24q36 0 53 24t17 76v211h522v-264q0 -168 -71 -233.5t-249 -65.5h-145v-135h-252v135h-145 q-179 0 -249.5 65t-70.5 234z" />
<glyph unicode="&#xa3;" horiz-adv-x="1636" d="M4 700v377h117v285q0 153 103.5 234t301.5 81h652q197 0 301 -81t104 -234v-199h-649v23q0 56 -20.5 84t-61.5 28q-39 0 -60.5 -27t-21.5 -77v-117h420v-377h-420v-319h82q42 0 61 28.5t19 94.5v110h651v-256q0 -183 -98.5 -270.5t-306.5 -87.5h-1057v700h-117z" />
<glyph unicode="&#xa4;" horiz-adv-x="1241" d="M53 455l197 200q-33 52 -49.5 109t-16.5 123q0 63 16.5 119t49.5 108l-197 203l133 135l199 -199q53 35 110.5 51.5t127.5 16.5q68 0 126.5 -16.5t108.5 -51.5l199 199l133 -135l-197 -203q34 -54 50 -110.5t16 -118.5t-16.5 -119t-49.5 -111l197 -200l-133 -138 l-199 201q-52 -35 -110.5 -52t-124.5 -17q-68 0 -126 17t-112 52l-199 -201zM377 885q0 -100 72.5 -172t173.5 -72q99 0 171 72.5t72 171.5q0 98 -72.5 170.5t-170.5 72.5q-100 0 -173 -72.5t-73 -170.5z" />
<glyph unicode="&#xa5;" horiz-adv-x="1575" d="M-18 1663h604l200 -465l203 465h604l-403 -862h385v-264h-463v-537h-649v537h-463v264h385z" />
<glyph unicode="&#xa6;" horiz-adv-x="1024" d="M373 -350v758h280v-758h-280zM373 674v758h280v-758h-280z" />
<glyph unicode="&#xa7;" horiz-adv-x="1421" d="M55 741v80q0 116 33 181t105 94q-22 32 -31.5 69.5t-9.5 100.5v112q0 168 71 233.5t250 65.5h465q179 0 250.5 -66t71.5 -233v-88h-486v33q0 51 -17 75.5t-52 24.5q-29 0 -48.5 -20t-19.5 -49q0 -56 23 -83t112 -57l318 -108q160 -55 218 -126.5t58 -207.5v-100 q0 -115 -32.5 -180.5t-102.5 -94.5q19 -28 28 -59t9 -84v-27v-131q0 -168 -71.5 -234.5t-248.5 -66.5h-493q-179 0 -250.5 66.5t-71.5 234.5v162h492v-108q0 -56 17.5 -78.5t59.5 -22.5q43 0 60.5 21t17.5 75v50q0 45 -28 76.5t-86 52.5l-390 137q-131 45 -176 103.5 t-45 176.5zM555 817q0 -44 28 -75t87 -52l184 -67v104q0 46 -27.5 77.5t-85.5 51.5l-186 64v-103z" />
<glyph unicode="&#xa8;" horiz-adv-x="1024" d="M139 1391v272h312v-272h-312zM571 1391v272h314v-272h-314z" />
<glyph unicode="&#xa9;" horiz-adv-x="1706" d="M102 741q0 151 57.5 289t166.5 248q103 105 238 160t288 55q155 0 292.5 -56t244.5 -163q104 -105 160.5 -243t56.5 -290q0 -154 -55.5 -288.5t-161.5 -237.5q-111 -108 -250 -166.5t-287 -58.5q-149 0 -284 57t-244 166q-108 107 -165 243t-57 285zM256 743 q0 -119 45.5 -227.5t130.5 -193.5q86 -86 194 -131.5t228 -45.5q119 0 228.5 46t197.5 133q85 83 128.5 189.5t43.5 229.5q0 120 -45 229t-129 193q-87 87 -194.5 131.5t-229.5 44.5q-123 0 -230 -43.5t-190 -128.5q-86 -87 -132 -197t-46 -229zM440 737q0 200 111 323.5 t289 123.5q176 0 278.5 -79.5t110.5 -221.5h-242q-3 63 -38 99t-93 36q-73 0 -114.5 -71.5t-41.5 -201.5q0 -131 41 -196.5t123 -65.5q60 0 92 36.5t35 106.5l248 1q-6 -149 -109 -237.5t-272 -88.5q-195 0 -306.5 116t-111.5 320z" />
<glyph unicode="&#xaa;" horiz-adv-x="922" d="M43 1010v39q0 84 33.5 129t120.5 79l311 125v39q0 41 -12.5 57.5t-42.5 16.5q-28 0 -41 -17.5t-13 -56.5v-28h-352v65q0 117 53.5 163t188.5 46h338q134 0 187.5 -46t53.5 -163v-708h-350v57q-54 -33 -109 -48.5t-116 -15.5q-122 0 -186 68.5t-64 198.5zM397 1016 q0 -38 13.5 -56t42.5 -18q30 0 43.5 17.5t13.5 56.5v141l-49 -22q-35 -17 -49.5 -39t-14.5 -62v-18z" />
<glyph unicode="&#xab;" horiz-adv-x="985" d="M72 651l104 500h307l-96 -510l96 -487h-315zM514 651l107 500h307l-97 -510l97 -487h-316z" />
<glyph unicode="&#xac;" horiz-adv-x="1706" d="M254 602v266h1198v-501h-272v235h-926z" />
<glyph unicode="&#xad;" horiz-adv-x="819" d="M57 449v436h707v-436h-707z" />
<glyph unicode="&#xae;" horiz-adv-x="1706" d="M102 741q0 151 57.5 289t166.5 248q103 105 238 160t288 55q155 0 292.5 -56t244.5 -163q104 -105 160.5 -243t56.5 -290q0 -154 -55.5 -288.5t-161.5 -237.5q-111 -108 -250 -166.5t-287 -58.5q-149 0 -284 57t-244 166q-108 107 -165 243t-57 285zM256 743 q0 -119 45.5 -227.5t130.5 -193.5q86 -86 194 -131.5t228 -45.5q119 0 228.5 46t197.5 133q85 83 128.5 189.5t43.5 229.5q0 120 -45 229t-129 193q-87 87 -194.5 131.5t-229.5 44.5q-123 0 -230 -43.5t-190 -128.5q-86 -87 -132 -197t-46 -229zM528 352v813h334 q174 0 265.5 -61t91.5 -178q0 -78 -43 -135t-121 -84l178 -355h-279l-145 312h-25v-312h-256zM784 813h54q58 0 88 25t30 73q0 49 -32 72t-101 23h-39v-193z" />
<glyph unicode="&#xaf;" horiz-adv-x="1024" d="M199 1415v238h626v-238h-626z" />
<glyph unicode="&#xb0;" horiz-adv-x="674" d="M14 1149q0 134 95.5 229t228.5 95q134 0 227.5 -94.5t93.5 -229.5q0 -132 -94.5 -227t-228.5 -95t-228 93.5t-94 228.5zM186 1151q0 -64 44 -109t108 -45q62 0 106.5 46t44.5 108t-45 107t-108 45q-62 0 -106 -44.5t-44 -107.5z" />
<glyph unicode="&#xb1;" horiz-adv-x="1706" d="M254 -41v272h1198v-272h-1198zM254 680v272h459v310h280v-310h459v-272h-459v-309h-280v309h-459z" />
<glyph unicode="&#xb2;" horiz-adv-x="1057" d="M31 666v217l504 415q17 17 26.5 36.5t9.5 39.5q0 37 -12 53.5t-39 16.5q-25 0 -40 -17t-15 -45v-59h-434v160q0 92 68 140t198 48h442q131 0 200 -48.5t69 -139.5v-162q0 -66 -17 -107.5t-55 -72.5l-299 -246h371v-229h-977z" />
<glyph unicode="&#xb3;" horiz-adv-x="1057" d="M27 846v174h438v-64q0 -38 12.5 -54.5t40.5 -16.5t40.5 16.5t12.5 54.5v60q0 36 -18 53.5t-55 17.5h-95v226h89q39 0 59 17.5t20 51.5q0 27 -15.5 44.5t-39.5 17.5q-25 0 -40 -17t-15 -45v-18h-434v119q0 92 68 140t198 48h442q131 0 200 -48.5t69 -139.5v-84 q0 -77 -41.5 -125t-133.5 -78q97 -20 136 -70t39 -157v-97q0 -110 -65.5 -162.5t-203.5 -52.5h-442q-131 0 -198.5 48t-67.5 141z" />
<glyph unicode="&#xb4;" horiz-adv-x="1024" d="M352 1384l140 279h346l-166 -279h-320z" />
<glyph unicode="&#xb5;" horiz-adv-x="1372" d="M-29 -422l209 1509h422l-84 -614q-2 -22 -3 -33.5t-1 -19.5q0 -68 31.5 -100.5t95.5 -32.5q79 0 124 52t60 161l84 587h418l-158 -1087h-368l18 131q-36 -68 -82.5 -101.5t-105.5 -33.5q-61 0 -105.5 31.5t-70.5 93.5l-72 -543h-412z" />
<glyph unicode="&#xb6;" horiz-adv-x="1024" d="M10 1130q0 157 106.5 253t282.5 96h615v-142h-101v-1337h-202v1337h-140v-1337h-202v784q-163 8 -261 103t-98 243z" />
<glyph unicode="&#xb7;" horiz-adv-x="664" d="M100 846q0 96 68 163.5t164 67.5q97 0 164 -67t67 -164q0 -96 -67.5 -163t-163.5 -67t-164 67.5t-68 162.5z" />
<glyph unicode="&#xb8;" horiz-adv-x="1024" d="M317 -129h86q40 0 61 18t21 52q0 23 -10 48.5t-33 55.5h189q38 -43 57 -90.5t19 -101.5q0 -117 -71 -164t-265 -47h-54v229z" />
<glyph unicode="&#xb9;" horiz-adv-x="653" d="M-6 1303v227q97 10 163 43t101 90h332v-997h-432v637h-164z" />
<glyph unicode="&#xba;" horiz-adv-x="924" d="M43 956v502q0 118 53 163.5t187 45.5h356q135 0 188.5 -46t53.5 -163v-502q0 -116 -53.5 -162t-188.5 -46h-356q-134 0 -187 45.5t-53 162.5zM410 993q0 -35 12.5 -52t38.5 -17q27 0 39 16.5t12 52.5v426q0 36 -12.5 53t-38.5 17q-27 0 -39 -16.5t-12 -53.5v-426z" />
<glyph unicode="&#xbb;" horiz-adv-x="985" d="M70 154l96 512l-96 485h315l98 -496l-106 -501h-307zM514 154l96 512l-96 485h315l97 -496l-105 -501h-307z" />
<glyph unicode="&#xbc;" horiz-adv-x="2091" d="M-6 1327v211q96 10 158 41t94 84h317v-932h-413v596h-156zM330 0l721 1663h303l-719 -1663h-305zM1071 184v191l283 557h618v-535h137v-213h-137v-184h-413v184h-488zM1432 397h127v256z" />
<glyph unicode="&#xbd;" horiz-adv-x="2071" d="M-6 1327v211q96 10 158 41t94 84h317v-932h-413v596h-156zM330 0l721 1663h303l-719 -1663h-305zM1090 0v203l481 387q16 13 25.5 32t9.5 40q0 34 -11.5 49.5t-35.5 15.5q-25 0 -39.5 -15.5t-14.5 -41.5v-56h-415v148q0 87 65.5 132.5t190.5 45.5h421q125 0 189.5 -45.5 t64.5 -132.5v-152q0 -61 -15.5 -99.5t-49.5 -66.5l-287 -231h352v-213h-931z" />
<glyph unicode="&#xbe;" horiz-adv-x="2476" d="M25 899v162h419v-57q0 -36 12 -52t38 -16q27 0 39 15t12 53v55q0 33 -17 49t-53 16h-90v211h84q38 0 57 16t19 48q0 26 -14.5 42.5t-36.5 16.5q-25 0 -39.5 -15.5t-14.5 -41.5v-17h-415v109q0 87 65.5 132.5t190.5 45.5h421q125 0 190.5 -45.5t65.5 -132.5v-78 q0 -73 -39.5 -117.5t-127.5 -70.5q92 -21 129.5 -67.5t37.5 -145.5v-90q0 -103 -62.5 -152t-193.5 -49h-421q-126 0 -191 45t-65 131zM715 0l721 1663h303l-719 -1663h-305zM1456 184v191l283 557h618v-535h137v-213h-137v-184h-413v184h-488zM1817 397h127v256z" />
<glyph unicode="&#xbf;" horiz-adv-x="1554" d="M59 315v248q0 70 9.5 112t29.5 75q29 47 136 125q26 19 38 28q102 77 128 121.5t26 110.5v61h653v-156q0 -89 -32 -151t-113 -127q-26 -20 -74 -56q-87 -64 -115 -96q-19 -22 -26.5 -44.5t-7.5 -71.5q0 -61 19.5 -88t64.5 -27q43 0 65.5 26.5t22.5 77.5v29h612v-197 q0 -153 -104 -234t-301 -81h-625q-199 0 -302.5 80.5t-103.5 234.5zM426 1294v369h653v-369h-653z" />
<glyph unicode="&#xc0;" horiz-adv-x="1602" d="M0 0l293 1663h1016l293 -1663h-672l-37 360h-186l-37 -360h-670zM475 2021h346l140 -279h-320zM731 727h137l-67 565z" />
<glyph unicode="&#xc1;" horiz-adv-x="1602" d="M0 0l293 1663h1016l293 -1663h-672l-37 360h-186l-37 -360h-670zM641 1742l140 279h346l-166 -279h-320zM731 727h137l-67 565z" />
<glyph unicode="&#xc2;" horiz-adv-x="1602" d="M0 0l293 1663h1016l293 -1663h-672l-37 360h-186l-37 -360h-670zM453 1742l133 279h430l133 -279h-272l-76 164l-78 -164h-270zM731 727h137l-67 565z" />
<glyph unicode="&#xc3;" horiz-adv-x="1602" d="M0 0l293 1663h1016l293 -1663h-672l-37 360h-186l-37 -360h-670zM398 1742v82q0 90 43.5 133t134.5 43q11 0 37 -2q10 -1 16 -2l274 -34q4 -1 9 -1.5t14 -0.5q32 0 50 15t18 42v4h210v-82q0 -89 -43.5 -132.5t-134.5 -43.5q-11 0 -21.5 0.5t-31.5 3.5l-275 35 q-4 1 -8.5 1.5t-13.5 0.5q-32 0 -50 -15.5t-18 -41.5v-5h-210zM731 727h137l-67 565z" />
<glyph unicode="&#xc4;" horiz-adv-x="1602" d="M0 0l293 1663h1016l293 -1663h-672l-37 360h-186l-37 -360h-670zM428 1749v272h312v-272h-312zM731 727h137l-67 565zM860 1749v272h314v-272h-314z" />
<glyph unicode="&#xc5;" horiz-adv-x="1602" d="M0 0l293 1663h1016l293 -1663h-672l-37 360h-186l-37 -360h-670zM555 1837v107q0 66 24.5 92t88.5 26h266q64 0 88.5 -26t24.5 -92v-107q0 -68 -25 -94.5t-88 -26.5h-266q-63 0 -88 27t-25 94zM674 1888q0 -12 8 -18t25 -6h188q15 0 23 6t8 18q0 14 -7.5 20.5t-23.5 6.5 h-188q-17 0 -25 -7t-8 -20zM731 727h137l-67 565z" />
<glyph unicode="&#xc6;" horiz-adv-x="1972" d="M0 0l293 1663h1608v-379h-398v-182h398v-379h-398v-344h398v-379h-1018v360h-176l-37 -360h-670zM741 729h142v555h-82z" />
<glyph unicode="&#xc7;" d="M66 346v930q0 218 88.5 307.5t306.5 89.5h678q232 0 321.5 -88t89.5 -309v-219h-659v121q0 65 -19.5 92.5t-64.5 27.5q-43 0 -62.5 -28.5t-19.5 -91.5v-693q0 -63 19.5 -91.5t62.5 -28.5t63.5 29t20.5 91v193h659v-332q0 -191 -95.5 -274.5t-315.5 -83.5h-678 q-205 0 -300 86.5t-95 271.5zM614 -129h86q40 0 61 18t21 52q0 23 -10 48.5t-33 55.5h189q38 -43 57 -90.5t19 -101.5q0 -117 -71 -164t-265 -47h-54v229z" />
<glyph unicode="&#xc8;" horiz-adv-x="1194" d="M76 0v1663h1048v-379h-399v-182h399v-379h-399v-344h399v-379h-1048zM272 2021h346l140 -279h-320z" />
<glyph unicode="&#xc9;" horiz-adv-x="1194" d="M76 0v1663h1048v-379h-399v-182h399v-379h-399v-344h399v-379h-1048zM438 1742l140 279h346l-166 -279h-320z" />
<glyph unicode="&#xca;" horiz-adv-x="1194" d="M76 0v1663h1048v-379h-399v-182h399v-379h-399v-344h399v-379h-1048zM250 1742l133 279h430l133 -279h-272l-76 164l-78 -164h-270z" />
<glyph unicode="&#xcb;" horiz-adv-x="1194" d="M76 0v1663h1048v-379h-399v-182h399v-379h-399v-344h399v-379h-1048zM225 1749v272h312v-272h-312zM657 1749v272h314v-272h-314z" />
<glyph unicode="&#xcc;" horiz-adv-x="801" d="M75 2021h346l140 -279h-320zM76 0v1663h649v-1663h-649z" />
<glyph unicode="&#xcd;" horiz-adv-x="801" d="M76 0v1663h649v-1663h-649zM241 1742l140 279h346l-166 -279h-320z" />
<glyph unicode="&#xce;" horiz-adv-x="801" d="M53 1742l133 279h430l133 -279h-272l-76 164l-78 -164h-270zM76 0v1663h649v-1663h-649z" />
<glyph unicode="&#xcf;" horiz-adv-x="801" d="M28 1749v272h312v-272h-312zM76 0v1663h649v-1663h-649zM460 1749v272h314v-272h-314z" />
<glyph unicode="&#xd0;" horiz-adv-x="1636" d="M0 768v285h94v610h1063q221 0 316.5 -84t95.5 -274v-904q0 -223 -90.5 -312t-321.5 -89h-1063v768h-94zM725 381h109q53 0 74.5 26t21.5 93v665q0 66 -22 92.5t-74 26.5h-109v-231h102v-285h-102v-387z" />
<glyph unicode="&#xd1;" horiz-adv-x="1640" d="M76 0v1663h641l256 -686v686h592v-1663h-613l-284 782v-782h-592zM418 1742v82q0 90 43.5 133t134.5 43q11 0 37 -2q10 -1 16 -2l274 -34q4 -1 9 -1.5t14 -0.5q32 0 50 15t18 42v4h210v-82q0 -89 -43.5 -132.5t-134.5 -43.5q-11 0 -21.5 0.5t-31.5 3.5l-275 35 q-4 1 -8.5 1.5t-13.5 0.5q-32 0 -50 -15.5t-18 -41.5v-5h-210z" />
<glyph unicode="&#xd2;" d="M66 387v932q0 184 94.5 269t300.5 85h678q222 0 316.5 -82.5t94.5 -271.5v-932q0 -222 -90 -310.5t-321 -88.5h-678q-218 0 -306.5 90.5t-88.5 308.5zM483 2021h346l140 -279h-320zM725 485q0 -63 19.5 -90.5t62.5 -27.5q45 0 64.5 27t19.5 91v693q0 62 -20.5 91 t-63.5 29t-62.5 -28.5t-19.5 -91.5v-693z" />
<glyph unicode="&#xd3;" d="M66 387v932q0 184 94.5 269t300.5 85h678q222 0 316.5 -82.5t94.5 -271.5v-932q0 -222 -90 -310.5t-321 -88.5h-678q-218 0 -306.5 90.5t-88.5 308.5zM649 1742l140 279h346l-166 -279h-320zM725 485q0 -63 19.5 -90.5t62.5 -27.5q45 0 64.5 27t19.5 91v693 q0 62 -20.5 91t-63.5 29t-62.5 -28.5t-19.5 -91.5v-693z" />
<glyph unicode="&#xd4;" d="M66 387v932q0 184 94.5 269t300.5 85h678q222 0 316.5 -82.5t94.5 -271.5v-932q0 -222 -90 -310.5t-321 -88.5h-678q-218 0 -306.5 90.5t-88.5 308.5zM461 1742l133 279h430l133 -279h-272l-76 164l-78 -164h-270zM725 485q0 -63 19.5 -90.5t62.5 -27.5q45 0 64.5 27 t19.5 91v693q0 62 -20.5 91t-63.5 29t-62.5 -28.5t-19.5 -91.5v-693z" />
<glyph unicode="&#xd5;" d="M66 387v932q0 184 94.5 269t300.5 85h678q222 0 316.5 -82.5t94.5 -271.5v-932q0 -222 -90 -310.5t-321 -88.5h-678q-218 0 -306.5 90.5t-88.5 308.5zM406 1742v82q0 90 43.5 133t134.5 43q11 0 37 -2q10 -1 16 -2l274 -34q4 -1 9 -1.5t14 -0.5q32 0 50 15t18 42v4h210 v-82q0 -89 -43.5 -132.5t-134.5 -43.5q-11 0 -21.5 0.5t-31.5 3.5l-275 35q-4 1 -8.5 1.5t-13.5 0.5q-32 0 -50 -15.5t-18 -41.5v-5h-210zM725 485q0 -63 19.5 -90.5t62.5 -27.5q45 0 64.5 27t19.5 91v693q0 62 -20.5 91t-63.5 29t-62.5 -28.5t-19.5 -91.5v-693z" />
<glyph unicode="&#xd6;" d="M66 387v932q0 184 94.5 269t300.5 85h678q222 0 316.5 -82.5t94.5 -271.5v-932q0 -222 -90 -310.5t-321 -88.5h-678q-218 0 -306.5 90.5t-88.5 308.5zM436 1749v272h312v-272h-312zM725 485q0 -63 19.5 -90.5t62.5 -27.5q45 0 64.5 27t19.5 91v693q0 62 -20.5 91 t-63.5 29t-62.5 -28.5t-19.5 -91.5v-693zM868 1749v272h314v-272h-314z" />
<glyph unicode="&#xd7;" horiz-adv-x="1706" d="M254 184l426 426l-426 426l195 195l425 -426l426 426l195 -195l-426 -426l426 -426l-195 -194l-426 426l-425 -426z" />
<glyph unicode="&#xd8;" d="M-14 -2l125 152q-23 51 -34 114t-11 137v904q0 185 95 271.5t300 86.5h678q82 0 135 -6t86 -19l123 150l127 -107l-119 -145q29 -37 44 -95.5t15 -135.5v-904q0 -222 -90.5 -311.5t-320.5 -89.5h-678q-84 0 -138 9t-90 28l-118 -146zM725 500q0 -64 19.5 -91.5 t62.5 -27.5q45 0 64.5 27t19.5 92v665q0 63 -20 91t-64 28q-43 0 -62.5 -27.5t-19.5 -91.5v-665z" />
<glyph unicode="&#xd9;" d="M76 387v1276h649v-1178q0 -63 19.5 -90.5t62.5 -27.5q45 0 64.5 27t19.5 91v1178h649v-1276q0 -222 -90 -310.5t-322 -88.5h-659q-217 0 -305 90t-88 309zM483 2021h346l140 -279h-320z" />
<glyph unicode="&#xda;" d="M76 387v1276h649v-1178q0 -63 19.5 -90.5t62.5 -27.5q45 0 64.5 27t19.5 91v1178h649v-1276q0 -222 -90 -310.5t-322 -88.5h-659q-217 0 -305 90t-88 309zM649 1742l140 279h346l-166 -279h-320z" />
<glyph unicode="&#xdb;" d="M76 387v1276h649v-1178q0 -63 19.5 -90.5t62.5 -27.5q45 0 64.5 27t19.5 91v1178h649v-1276q0 -222 -90 -310.5t-322 -88.5h-659q-217 0 -305 90t-88 309zM461 1742l133 279h430l133 -279h-272l-76 164l-78 -164h-270z" />
<glyph unicode="&#xdc;" d="M76 387v1276h649v-1178q0 -63 19.5 -90.5t62.5 -27.5q45 0 64.5 27t19.5 91v1178h649v-1276q0 -222 -90 -310.5t-322 -88.5h-659q-217 0 -305 90t-88 309zM436 1749v272h312v-272h-312zM868 1749v272h314v-272h-314z" />
<glyph unicode="&#xdd;" horiz-adv-x="1575" d="M-18 1663h632l172 -399l175 399h632l-481 -1034v-629h-649v629zM628 1742l140 279h346l-166 -279h-320z" />
<glyph unicode="&#xde;" d="M76 0v1663h649v-201h414q219 0 315 -84.5t96 -275.5v-352q0 -223 -90.5 -312.5t-320.5 -89.5h-414v-348h-649zM725 715h86q48 0 69 27t21 92v143q0 64 -20.5 91.5t-67.5 27.5h-88v-381z" />
<glyph unicode="&#xdf;" horiz-adv-x="1237" d="M74 0v1364q0 169 70.5 234t248.5 65h453q178 0 248.5 -65.5t70.5 -233.5v-182q0 -159 -60.5 -224t-215.5 -75q159 -8 223 -74t64 -227v-281q0 -168 -71.5 -234.5t-248.5 -66.5h-231v248q37 2 52 18.5t15 55.5v362q0 39 -15.5 55.5t-51.5 18.5v247q36 3 49.5 19t13.5 55 v262q0 40 -14.5 57t-48.5 17q-36 0 -52 -17.5t-16 -56.5v-1341h-483z" />
<glyph unicode="&#xe0;" horiz-adv-x="1229" d="M57 373v53q0 120 45 185t160 114l416 180v56q0 58 -17 81t-57 23q-37 0 -54.5 -25t-17.5 -79v-43h-469v94q0 167 71.5 233t250.5 66h451q178 0 249.5 -66.5t71.5 -232.5v-1012h-467v82q-74 -47 -147 -69.5t-152 -22.5q-163 0 -248.5 98t-85.5 285zM288 1663h346l140 -279 h-320zM530 379q0 -53 18.5 -79t55.5 -26q40 0 58 25t18 80v203l-66 -31q-46 -23 -65 -54t-19 -89v-29z" />
<glyph unicode="&#xe1;" horiz-adv-x="1229" d="M57 373v53q0 120 45 185t160 114l416 180v56q0 58 -17 81t-57 23q-37 0 -54.5 -25t-17.5 -79v-43h-469v94q0 167 71.5 233t250.5 66h451q178 0 249.5 -66.5t71.5 -232.5v-1012h-467v82q-74 -47 -147 -69.5t-152 -22.5q-163 0 -248.5 98t-85.5 285zM454 1384l140 279h346 l-166 -279h-320zM530 379q0 -53 18.5 -79t55.5 -26q40 0 58 25t18 80v203l-66 -31q-46 -23 -65 -54t-19 -89v-29z" />
<glyph unicode="&#xe2;" horiz-adv-x="1229" d="M57 373v53q0 120 45 185t160 114l416 180v56q0 58 -17 81t-57 23q-37 0 -54.5 -25t-17.5 -79v-43h-469v94q0 167 71.5 233t250.5 66h451q178 0 249.5 -66.5t71.5 -232.5v-1012h-467v82q-74 -47 -147 -69.5t-152 -22.5q-163 0 -248.5 98t-85.5 285zM266 1384l133 279h430 l133 -279h-272l-76 164l-78 -164h-270zM530 379q0 -53 18.5 -79t55.5 -26q40 0 58 25t18 80v203l-66 -31q-46 -23 -65 -54t-19 -89v-29z" />
<glyph unicode="&#xe3;" horiz-adv-x="1229" d="M57 373v53q0 120 45 185t160 114l416 180v56q0 58 -17 81t-57 23q-37 0 -54.5 -25t-17.5 -79v-43h-469v94q0 167 71.5 233t250.5 66h451q178 0 249.5 -66.5t71.5 -232.5v-1012h-467v82q-74 -47 -147 -69.5t-152 -22.5q-163 0 -248.5 98t-85.5 285zM211 1384v82 q0 90 43.5 133t134.5 43q11 0 37 -2q10 -1 16 -2l274 -34q4 -1 9 -1.5t14 -0.5q32 0 50 15t18 42v4h210v-82q0 -89 -43.5 -132.5t-134.5 -43.5q-11 0 -21.5 0.5t-31.5 3.5l-275 35q-4 1 -8.5 1.5t-13.5 0.5q-32 0 -50 -15.5t-18 -41.5v-5h-210zM530 379q0 -53 18.5 -79 t55.5 -26q40 0 58 25t18 80v203l-66 -31q-46 -23 -65 -54t-19 -89v-29z" />
<glyph unicode="&#xe4;" horiz-adv-x="1229" d="M57 373v53q0 120 45 185t160 114l416 180v56q0 58 -17 81t-57 23q-37 0 -54.5 -25t-17.5 -79v-43h-469v94q0 167 71.5 233t250.5 66h451q178 0 249.5 -66.5t71.5 -232.5v-1012h-467v82q-74 -47 -147 -69.5t-152 -22.5q-163 0 -248.5 98t-85.5 285zM241 1391v272h312v-272 h-312zM530 379q0 -53 18.5 -79t55.5 -26q40 0 58 25t18 80v203l-66 -31q-46 -23 -65 -54t-19 -89v-29zM673 1391v272h314v-272h-314z" />
<glyph unicode="&#xe5;" horiz-adv-x="1229" d="M57 373v53q0 120 45 185t160 114l416 180v56q0 58 -17 81t-57 23q-37 0 -54.5 -25t-17.5 -79v-43h-469v94q0 167 71.5 233t250.5 66h451q178 0 249.5 -66.5t71.5 -232.5v-1012h-467v82q-74 -47 -147 -69.5t-152 -22.5q-163 0 -248.5 98t-85.5 285zM365 1485v106 q0 68 24.5 94.5t87.5 26.5h266q64 0 88.5 -26.5t24.5 -94.5v-106q0 -67 -24.5 -93t-88.5 -26h-266q-63 0 -87.5 26.5t-24.5 92.5zM483 1538q0 -13 8.5 -20t24.5 -7h189q14 0 22 7t8 20q0 14 -7.5 20.5t-22.5 6.5h-189q-16 0 -24.5 -7t-8.5 -20zM530 379q0 -53 18.5 -79 t55.5 -26q40 0 58 25t18 80v203l-66 -31q-46 -23 -65 -54t-19 -89v-29z" />
<glyph unicode="&#xe6;" horiz-adv-x="1819" d="M57 373v53q0 120 45 185t160 114l416 180v56q0 58 -17 81t-57 23q-37 0 -54.5 -25t-17.5 -79v-43h-469v94q0 167 71.5 233t250.5 66h279q105 0 160.5 -30t78.5 -99q24 69 79.5 99t162.5 30h295q178 0 249.5 -66.5t71.5 -232.5v-396h-626v-268q0 -51 16 -75.5t51 -24.5 q36 0 52 23.5t16 76.5v168h491v-221q0 -167 -71.5 -233t-249.5 -66h-314q-106 0 -162 30t-79 99q-24 -69 -79 -99t-161 -30h-254q-167 0 -250.5 94t-83.5 283zM530 379q0 -53 18.5 -79t55.5 -26q40 0 58 25t18 80v203l-66 -31q-46 -23 -65 -54t-19 -89v-29zM1128 852h148 v104q0 58 -18 84.5t-56 26.5t-56 -26.5t-18 -84.5v-104z" />
<glyph unicode="&#xe7;" horiz-adv-x="1231" d="M57 295v717q0 168 71 233.5t249 65.5h475q179 0 250.5 -66.5t71.5 -232.5v-201h-492v145q0 52 -16.5 76.5t-51.5 24.5t-51 -24t-16 -77v-608q0 -51 16.5 -75.5t50.5 -24.5q36 0 52 23.5t16 76.5v211h492v-264q0 -167 -71.5 -233t-250.5 -66h-475q-178 0 -249 65t-71 234z M421 -129h86q40 0 61 18t21 52q0 23 -10 48.5t-33 55.5h189q38 -43 57 -90.5t19 -101.5q0 -117 -71 -164t-265 -47h-54v229z" />
<glyph unicode="&#xe8;" horiz-adv-x="1231" d="M57 295v717q0 168 71 233.5t249 65.5h475q179 0 250.5 -66.5t71.5 -232.5v-396h-627v-268q0 -51 16.5 -75.5t50.5 -24.5q36 0 52 23.5t16 76.5v168h492v-221q0 -167 -71.5 -233t-250.5 -66h-475q-178 0 -249 65t-71 234zM290 1663h346l140 -279h-320zM543 852h145v104 q0 58 -17.5 84.5t-56.5 26.5q-37 0 -54 -26t-17 -85v-104z" />
<glyph unicode="&#xe9;" horiz-adv-x="1231" d="M57 295v717q0 168 71 233.5t249 65.5h475q179 0 250.5 -66.5t71.5 -232.5v-396h-627v-268q0 -51 16.5 -75.5t50.5 -24.5q36 0 52 23.5t16 76.5v168h492v-221q0 -167 -71.5 -233t-250.5 -66h-475q-178 0 -249 65t-71 234zM456 1384l140 279h346l-166 -279h-320zM543 852 h145v104q0 58 -17.5 84.5t-56.5 26.5q-37 0 -54 -26t-17 -85v-104z" />
<glyph unicode="&#xea;" horiz-adv-x="1231" d="M57 295v717q0 168 71 233.5t249 65.5h475q179 0 250.5 -66.5t71.5 -232.5v-396h-627v-268q0 -51 16.5 -75.5t50.5 -24.5q36 0 52 23.5t16 76.5v168h492v-221q0 -167 -71.5 -233t-250.5 -66h-475q-178 0 -249 65t-71 234zM268 1384l133 279h430l133 -279h-272l-76 164 l-78 -164h-270zM543 852h145v104q0 58 -17.5 84.5t-56.5 26.5q-37 0 -54 -26t-17 -85v-104z" />
<glyph unicode="&#xeb;" horiz-adv-x="1231" d="M57 295v717q0 168 71 233.5t249 65.5h475q179 0 250.5 -66.5t71.5 -232.5v-396h-627v-268q0 -51 16.5 -75.5t50.5 -24.5q36 0 52 23.5t16 76.5v168h492v-221q0 -167 -71.5 -233t-250.5 -66h-475q-178 0 -249 65t-71 234zM243 1391v272h312v-272h-312zM543 852h145v104 q0 58 -17.5 84.5t-56.5 26.5q-37 0 -54 -26t-17 -85v-104zM675 1391v272h314v-272h-314z" />
<glyph unicode="&#xec;" horiz-adv-x="635" d="M-9 1663h346l140 -279h-320zM76 0v1307h483v-1307h-483z" />
<glyph unicode="&#xed;" horiz-adv-x="635" d="M76 0v1307h483v-1307h-483zM157 1384l140 279h346l-166 -279h-320z" />
<glyph unicode="&#xee;" horiz-adv-x="635" d="M-31 1384l133 279h430l133 -279h-272l-76 164l-78 -164h-270zM76 0v1307h483v-1307h-483z" />
<glyph unicode="&#xef;" horiz-adv-x="635" d="M-56 1391v272h312v-272h-312zM76 0v1307h483v-1307h-483zM376 1391v272h314v-272h-314z" />
<glyph unicode="&#xf0;" horiz-adv-x="1231" d="M57 295v573q0 169 71 235t249 66h266q-22 37 -48.5 76t-66.5 90l-393 -108l-47 176l328 88q-31 39 -68.5 81.5t-83.5 90.5h369l100 -84l328 92l49 -178l-219 -61q162 -155 222.5 -276t60.5 -288v-573q0 -167 -71.5 -233t-250.5 -66h-475q-178 0 -249 65t-71 234zM547 348 q0 -51 16.5 -75.5t50.5 -24.5q36 0 52 23.5t16 76.5v486q0 51 -16.5 75.5t-51.5 24.5t-51 -24t-16 -76v-486z" />
<glyph unicode="&#xf1;" horiz-adv-x="1245" d="M74 0v1307h469v-82q73 46 144.5 68t152.5 22q164 0 250 -97.5t86 -283.5v-934h-484v911q0 52 -16.5 76.5t-50.5 24.5q-36 0 -52 -24t-16 -77v-911h-483zM220 1384v82q0 90 43.5 133t134.5 43q11 0 37 -2q10 -1 16 -2l274 -34q4 -1 9 -1.5t14 -0.5q32 0 50 15t18 42v4h210 v-82q0 -89 -43.5 -132.5t-134.5 -43.5q-11 0 -21.5 0.5t-31.5 3.5l-275 35q-4 1 -8.5 1.5t-13.5 0.5q-32 0 -50 -15.5t-18 -41.5v-5h-210z" />
<glyph unicode="&#xf2;" horiz-adv-x="1231" d="M57 295v717q0 168 71 233.5t249 65.5h475q179 0 250.5 -66.5t71.5 -232.5v-717q0 -167 -71.5 -233t-250.5 -66h-475q-178 0 -249 65t-71 234zM290 1663h346l140 -279h-320zM547 348q0 -51 16.5 -75.5t50.5 -24.5q36 0 52 23.5t16 76.5v608q0 52 -16.5 76.5t-51.5 24.5 t-51 -24t-16 -77v-608z" />
<glyph unicode="&#xf3;" horiz-adv-x="1231" d="M57 295v717q0 168 71 233.5t249 65.5h475q179 0 250.5 -66.5t71.5 -232.5v-717q0 -167 -71.5 -233t-250.5 -66h-475q-178 0 -249 65t-71 234zM456 1384l140 279h346l-166 -279h-320zM547 348q0 -51 16.5 -75.5t50.5 -24.5q36 0 52 23.5t16 76.5v608q0 52 -16.5 76.5 t-51.5 24.5t-51 -24t-16 -77v-608z" />
<glyph unicode="&#xf4;" horiz-adv-x="1231" d="M57 295v717q0 168 71 233.5t249 65.5h475q179 0 250.5 -66.5t71.5 -232.5v-717q0 -167 -71.5 -233t-250.5 -66h-475q-178 0 -249 65t-71 234zM268 1384l133 279h430l133 -279h-272l-76 164l-78 -164h-270zM547 348q0 -51 16.5 -75.5t50.5 -24.5q36 0 52 23.5t16 76.5v608 q0 52 -16.5 76.5t-51.5 24.5t-51 -24t-16 -77v-608z" />
<glyph unicode="&#xf5;" horiz-adv-x="1231" d="M57 295v717q0 168 71 233.5t249 65.5h475q179 0 250.5 -66.5t71.5 -232.5v-717q0 -167 -71.5 -233t-250.5 -66h-475q-178 0 -249 65t-71 234zM213 1384v82q0 90 43.5 133t134.5 43q11 0 37 -2q10 -1 16 -2l274 -34q4 -1 9 -1.5t14 -0.5q32 0 50 15t18 42v4h210v-82 q0 -89 -43.5 -132.5t-134.5 -43.5q-11 0 -21.5 0.5t-31.5 3.5l-275 35q-4 1 -8.5 1.5t-13.5 0.5q-32 0 -50 -15.5t-18 -41.5v-5h-210zM547 348q0 -51 16.5 -75.5t50.5 -24.5q36 0 52 23.5t16 76.5v608q0 52 -16.5 76.5t-51.5 24.5t-51 -24t-16 -77v-608z" />
<glyph unicode="&#xf6;" horiz-adv-x="1231" d="M57 295v717q0 168 71 233.5t249 65.5h475q179 0 250.5 -66.5t71.5 -232.5v-717q0 -167 -71.5 -233t-250.5 -66h-475q-178 0 -249 65t-71 234zM243 1391v272h312v-272h-312zM547 348q0 -51 16.5 -75.5t50.5 -24.5q36 0 52 23.5t16 76.5v608q0 52 -16.5 76.5t-51.5 24.5 t-51 -24t-16 -77v-608zM675 1391v272h314v-272h-314z" />
<glyph unicode="&#xf7;" horiz-adv-x="1706" d="M254 475v273h1198v-273h-1198zM670 188q0 77 53.5 130t130.5 53q74 0 128 -54t54 -129q0 -74 -54 -128t-130 -54t-129 53t-53 129zM670 1032q0 77 54 131t130 54q74 0 128 -55t54 -130q0 -74 -54 -128t-130 -54t-129 53t-53 129z" />
<glyph unicode="&#xf8;" horiz-adv-x="1231" d="M-18 -20l106 131q-16 27 -23.5 69t-7.5 115v717q0 168 71 233.5t249 65.5h475q62 0 109.5 -7t74.5 -20l99 123l106 -88l-98 -123q16 -27 23.5 -69.5t7.5 -114.5v-717q0 -167 -71.5 -233t-250.5 -66h-475q-59 0 -106.5 7t-75.5 20l-107 -132zM547 348q0 -51 16.5 -75.5 t50.5 -24.5q36 0 52 23.5t16 76.5v608q0 52 -16.5 76.5t-51.5 24.5t-51 -24t-16 -77v-608z" />
<glyph unicode="&#xf9;" horiz-adv-x="1245" d="M68 373v934h483v-912q0 -51 16.5 -75.5t50.5 -24.5q36 0 52 23.5t16 76.5v912h485v-1307h-469v82q-74 -47 -146.5 -69.5t-152.5 -22.5q-163 0 -249 98t-86 285zM297 1663h346l140 -279h-320z" />
<glyph unicode="&#xfa;" horiz-adv-x="1245" d="M68 373v934h483v-912q0 -51 16.5 -75.5t50.5 -24.5q36 0 52 23.5t16 76.5v912h485v-1307h-469v82q-74 -47 -146.5 -69.5t-152.5 -22.5q-163 0 -249 98t-86 285zM463 1384l140 279h346l-166 -279h-320z" />
<glyph unicode="&#xfb;" horiz-adv-x="1245" d="M68 373v934h483v-912q0 -51 16.5 -75.5t50.5 -24.5q36 0 52 23.5t16 76.5v912h485v-1307h-469v82q-74 -47 -146.5 -69.5t-152.5 -22.5q-163 0 -249 98t-86 285zM275 1384l133 279h430l133 -279h-272l-76 164l-78 -164h-270z" />
<glyph unicode="&#xfc;" horiz-adv-x="1245" d="M68 373v934h483v-912q0 -51 16.5 -75.5t50.5 -24.5q36 0 52 23.5t16 76.5v912h485v-1307h-469v82q-74 -47 -146.5 -69.5t-152.5 -22.5q-163 0 -249 98t-86 285zM250 1391v272h312v-272h-312zM682 1391v272h314v-272h-314z" />
<glyph unicode="&#xfd;" horiz-adv-x="1208" d="M-8 1307h497l105 -863l106 863h498l-297 -1211q-38 -161 -71.5 -227.5t-86.5 -112.5q-60 -52 -134 -74t-224 -22h-365v250h158q68 0 97.5 25t29.5 81q0 24 -2 42.5t-6 31.5zM444 1384l140 279h346l-166 -279h-320z" />
<glyph unicode="&#xfe;" horiz-adv-x="1237" d="M74 -340v2003h483v-432q66 43 136 63.5t151 20.5q164 0 250 -97.5t86 -283.5v-561q0 -187 -86.5 -285t-249.5 -98q-77 0 -146 20t-141 64v-414h-483zM557 395q0 -52 15.5 -76t50.5 -24q36 0 52.5 24t16.5 76v516q0 52 -16.5 76.5t-50.5 24.5q-36 0 -52 -24t-16 -77v-516z " />
<glyph unicode="&#xff;" horiz-adv-x="1208" d="M-8 1307h497l105 -863l106 863h498l-297 -1211q-38 -161 -71.5 -227.5t-86.5 -112.5q-60 -52 -134 -74t-224 -22h-365v250h158q68 0 97.5 25t29.5 81q0 24 -2 42.5t-6 31.5zM231 1391v272h312v-272h-312zM663 1391v272h314v-272h-314z" />
<glyph unicode="&#x152;" horiz-adv-x="1982" d="M66 401v904q0 185 95 271.5t300 86.5h1450v-379h-400v-182h400v-379h-400v-344h400v-379h-1450q-217 0 -306 91t-89 310zM725 500q0 -64 19.5 -91.5t62.5 -27.5q45 0 64.5 27t19.5 92v665q0 63 -20 91t-64 28q-43 0 -62.5 -27.5t-19.5 -91.5v-665z" />
<glyph unicode="&#x153;" horiz-adv-x="1827" d="M57 295v717q0 168 71 233.5t249 65.5h297q106 0 161 -30t78 -99q24 69 79 99t161 30h297q179 0 250.5 -66.5t71.5 -232.5v-396h-627v-268q0 -51 16.5 -75.5t50.5 -24.5q36 0 52 23.5t16 76.5v168h492v-221q0 -167 -71.5 -233t-250.5 -66h-297q-106 0 -161 30t-79 99 q-23 -69 -78 -99t-161 -30h-297q-178 0 -249 65t-71 234zM547 348q0 -51 16.5 -75.5t50.5 -24.5q36 0 52 23.5t16 76.5v608q0 52 -16.5 76.5t-51.5 24.5t-51 -24t-16 -77v-608zM1139 852h147v104q0 57 -18.5 84t-57.5 27q-37 0 -54 -26t-17 -85v-104z" />
<glyph unicode="&#x178;" horiz-adv-x="1575" d="M-18 1663h632l172 -399l175 399h632l-481 -1034v-629h-649v629zM415 1749v272h312v-272h-312zM847 1749v272h314v-272h-314z" />
<glyph unicode="&#x2c6;" horiz-adv-x="1024" d="M164 1384l133 279h430l133 -279h-272l-76 164l-78 -164h-270z" />
<glyph unicode="&#x2dc;" horiz-adv-x="1024" d="M109 1384v82q0 90 43.5 133t134.5 43q11 0 37 -2q10 -1 16 -2l274 -34q4 -1 9 -1.5t14 -0.5q32 0 50 15t18 42v4h210v-82q0 -89 -43.5 -132.5t-134.5 -43.5q-11 0 -21.5 0.5t-31.5 3.5l-275 35q-4 1 -8.5 1.5t-13.5 0.5q-32 0 -50 -15.5t-18 -41.5v-5h-210z" />
<glyph unicode="&#x2000;" horiz-adv-x="1031" />
<glyph unicode="&#x2001;" horiz-adv-x="2062" />
<glyph unicode="&#x2002;" horiz-adv-x="1031" />
<glyph unicode="&#x2003;" horiz-adv-x="2062" />
<glyph unicode="&#x2004;" horiz-adv-x="687" />
<glyph unicode="&#x2005;" horiz-adv-x="515" />
<glyph unicode="&#x2006;" horiz-adv-x="343" />
<glyph unicode="&#x2007;" horiz-adv-x="343" />
<glyph unicode="&#x2008;" horiz-adv-x="257" />
<glyph unicode="&#x2009;" horiz-adv-x="412" />
<glyph unicode="&#x200a;" horiz-adv-x="114" />
<glyph unicode="&#x2010;" horiz-adv-x="819" d="M57 449v436h707v-436h-707z" />
<glyph unicode="&#x2011;" horiz-adv-x="819" d="M57 449v436h707v-436h-707z" />
<glyph unicode="&#x2012;" horiz-adv-x="819" d="M57 449v436h707v-436h-707z" />
<glyph unicode="&#x2013;" horiz-adv-x="1024" d="M0 506v321h1024v-321h-1024z" />
<glyph unicode="&#x2014;" horiz-adv-x="2048" d="M0 506v321h2048v-321h-2048z" />
<glyph unicode="&#x2018;" horiz-adv-x="664" d="M90 864v439q0 202 63.5 281t221.5 79h198v-233h-133q-55 0 -78.5 -28.5t-23.5 -96.5v-48h235v-393h-483z" />
<glyph unicode="&#x2019;" horiz-adv-x="664" d="M90 866v234h133q56 0 79.5 28.5t23.5 96.5v49h-236v389h483v-434q0 -203 -63.5 -283t-220.5 -80h-199z" />
<glyph unicode="&#x201a;" horiz-adv-x="664" d="M90 0v391h483v-436q0 -202 -63.5 -281.5t-221.5 -81.5h-198v236h133q56 0 79.5 28.5t23.5 96.5v47h-236z" />
<glyph unicode="&#x201c;" horiz-adv-x="1262" d="M90 864v439q0 202 63.5 281t221.5 79h198v-233h-133q-55 0 -78.5 -28.5t-23.5 -96.5v-48h235v-393h-483zM688 864v439q0 203 63 281.5t220 78.5h200v-233h-135q-54 0 -77 -28.5t-23 -96.5v-48h235v-393h-483z" />
<glyph unicode="&#x201d;" horiz-adv-x="1262" d="M90 864v236h133q56 0 79.5 28.5t23.5 96.5v49h-236v389h483v-434q0 -203 -63.5 -283t-221.5 -82h-198zM688 864v236h133q56 0 79.5 28.5t23.5 96.5v49h-236v389h483v-434q0 -203 -63.5 -283t-221.5 -82h-198z" />
<glyph unicode="&#x201e;" horiz-adv-x="1262" d="M90 0v391h483v-436q0 -202 -63.5 -281.5t-221.5 -81.5h-198v236h133q56 0 79.5 28.5t23.5 96.5v47h-236zM688 0v391h483v-436q0 -202 -63.5 -281.5t-221.5 -81.5h-198v236h133q56 0 79.5 28.5t23.5 96.5v47h-236z" />
<glyph unicode="&#x2022;" horiz-adv-x="1208" d="M307 762q0 123 87 209t210 86q122 0 208.5 -86.5t86.5 -208.5t-87.5 -209.5t-209.5 -87.5q-123 0 -209 87t-86 210z" />
<glyph unicode="&#x2026;" horiz-adv-x="2048" d="M100 0v389h483v-389h-483zM782 0v389h483v-389h-483zM1466 0v389h483v-389h-483z" />
<glyph unicode="&#x202f;" horiz-adv-x="412" />
<glyph unicode="&#x2039;" horiz-adv-x="530" d="M59 651l105 500h307l-96 -510l96 -487h-313z" />
<glyph unicode="&#x203a;" horiz-adv-x="530" d="M59 154l97 512l-97 485h316l96 -496l-104 -501h-308z" />
<glyph unicode="&#x205f;" horiz-adv-x="515" />
<glyph unicode="&#x2122;" horiz-adv-x="1706" d="M164 1317v151h526v-151h-162v-408h-202v408h-162zM788 909v559h256l99 -266l98 266h256v-559h-182v367l-137 -367h-70l-137 367v-367h-183z" />
<glyph unicode="&#x25fc;" horiz-adv-x="1305" d="M0 0v1305h1305v-1305h-1305z" />
</font>
</defs>
</svg>
